<svg xmlns="http://www.w3.org/2000/svg" xmlns:xlink="http://www.w3.org/1999/xlink" width="273.1940002441406" height="256.2763366699219" viewBox="373.4209899902344 393.7170104980469 273.1940002441406 256.2763366699219">
	<defs>
    <linearGradient id="purple-grad" x1="373.4209899902344" y1="393.7170104980469" x2="373.4209899902344" y2="649.9933471679688" gradientUnits="userSpaceOnUse">
      <stop offset="0%" stop-color="#da42fb" />
      <stop offset="100%" stop-color="#8556e5" />
    </linearGradient>
  </defs>
  
  <path fill="url(#purple-grad)" d="M445.105 566.102C446.311 566.203 447.549 566.315 448.708 566.685C451.486 567.575 454.16 570.13 455.402 572.75C456.535 575.142 456.668 578.068 455.624 580.5C454.254 583.692 451.489 585.269 448.442 586.544C446.131 586.596 444.004 586.657 441.874 585.633C439.814 584.644 438.115 582.65 437.376 580.5C436.293 577.348 436.94 573.634 438.511 570.75C440.016 567.987 442.238 567.041 445.105 566.102Z"/>
	<path fill="url(#purple-grad)" d="M546.987 564.677L560.241 564.669C562.412 564.682 564.81 564.462 566.881 565.15L567.5 565.375C569.961 566.239 572.166 567.216 574.078 569.047C576.319 571.193 577.883 574.028 578.369 577.102C578.744 579.474 578.517 582.195 578.527 584.605L578.574 598.09L578.901 647.816L546.898 647.97L546.987 564.677Z"/>
	<path fill="url(#purple-grad)" d="M454.94 454.609C461.653 454.136 468.512 454.413 475.25 454.399L511.471 454.406L545.428 454.466C551.52 454.469 557.8 454.173 563.876 454.563C565.434 454.662 567.093 455.046 568.53 455.66C573.215 457.663 576.731 461.101 578.451 465.978C579.86 469.975 579.912 472.404 577.918 476.25C575.681 480.565 571.422 483.525 566.875 484.968C559.845 485.436 552.686 485.165 545.64 485.156L511.031 485.104L474.56 485.112L454.495 485.008C452.809 484.917 451.257 484.708 449.75 483.885C446.429 482.07 443.354 478.74 442.329 475.039C441.299 471.324 441.678 464.85 443.634 461.572C446.129 457.392 450.468 455.739 454.94 454.609Z"/>
	<path fill="url(#purple-grad)" d="M442.828 393.717L581.962 393.929C599.87 395.519 618.527 405.672 629.961 419.479C642.783 434.962 648.266 453.945 646.185 473.866C644.643 488.63 638.562 502.484 628.104 513.103C624.04 517.23 619.171 520.781 614.661 524.412C619.748 527.245 624.466 530.805 628.574 534.949C634.726 541.154 639.487 549.898 641.521 558.392C644.299 569.986 643.006 583.491 642.992 595.365L643.06 647.814L607.229 647.876L607.003 594.416C606.96 585.213 607.726 575.019 606.313 565.933C605.733 562.198 604.309 558.555 602.424 555.293C597.986 547.613 590.456 541.278 581.781 539.022L581.006 538.828C576.193 537.585 570.966 537.7 566.016 537.641L547.015 537.497L546.894 504.029L567.364 504.026C572.315 504.013 577.281 504.308 582.125 503.096C591.067 500.858 599.809 494.903 604.595 486.96C609.67 478.538 612.265 468.102 609.777 458.388L609.537 457.5C608.468 453.443 607.119 449.616 604.969 446C599.796 437.299 592.174 431.902 582.5 429.349C578.292 428.239 573.833 428.321 569.501 428.287L552.658 428.272L514.359 428.215L467.734 428.206L450.477 428.303C446.66 428.351 442.658 428.238 438.944 429.213C430.273 431.487 424.663 435.384 418.234 441.546C411.798 448.946 409.174 458.559 409.579 468.256C409.869 475.23 411.859 481.573 415.507 487.5C420.176 495.086 427.988 500.83 436.532 503.332C441.211 504.703 446.209 505.297 451 506.183C458.636 507.595 466.323 509 473.764 511.261C484.473 514.516 494.217 519.951 502.405 527.631C516.85 541.181 523.564 557.203 523.936 576.931C524.304 596.452 517.114 613.861 503.523 627.805C489.007 642.698 469.247 649.88 448.706 649.992C428.731 650.102 408.155 643.57 393.757 629.224C383.293 618.796 375.639 604.479 373.75 589.744C373.317 586.367 373.476 582.789 373.474 579.384C377.637 578.874 382.082 579.112 386.283 579.108L408.362 579.113C408.983 585.813 410.066 590.605 413.576 596.446C418.495 604.629 426.388 610.217 435.66 612.438L436.5 612.634C442.553 614.168 451.13 614.219 457.25 612.986C465.971 611.23 475.527 606.468 480.566 598.933C486.26 590.418 488.542 580.602 486.397 570.498C480.172 541.18 449.169 543.559 426.547 537.642C419.934 535.912 412.739 532.738 407.042 528.957C390.69 518.104 378.686 501.288 374.83 481.969C371.109 463.331 374.788 441.121 385.511 425.25C395.839 409.964 412.846 398.489 431 394.868C434.925 394.085 438.841 393.922 442.828 393.717Z"/>
</svg>